<svg width="57" height="58" viewBox="0 0 57 58" fill="none" xmlns="http://www.w3.org/2000/svg">
<path d="M50.958 24.5388C51.2501 26.1314 51.4093 27.7965 51.4093 29.5341C51.4093 43.1254 42.4698 52.7897 28.9679 52.7897C25.8974 52.7906 22.8568 52.1759 20.0198 50.9807C17.1829 49.7855 14.6052 48.0332 12.434 45.8239C10.2628 43.6147 8.54073 40.9918 7.36613 38.105C6.19153 35.2183 5.58744 32.1244 5.58838 29C5.58744 25.8756 6.19153 22.7817 7.36613 19.895C8.54073 17.0082 10.2628 14.3853 12.434 12.176C14.6052 9.96677 17.1829 8.21447 20.0198 7.01927C22.8568 5.82406 25.8974 5.20938 28.9679 5.21033C35.2806 5.21033 40.5555 7.57383 44.6025 11.4115L38.0119 18.1177V18.1008C35.5585 15.7228 32.4449 14.5024 28.9679 14.5024C21.2539 14.5024 14.9839 21.1337 14.9839 28.9855C14.9839 36.8348 21.2539 43.4807 28.9679 43.4807C35.967 43.4807 40.7313 39.4086 41.7098 33.8164H28.9679V24.5388H50.9604H50.958Z" fill="black"/>
</svg>
