<svg width="74" height="75" viewBox="0 0 74 75" fill="none" xmlns="http://www.w3.org/2000/svg">
<path d="M35.3165 53.1906C35.4645 53.3187 35.6248 53.4469 35.7821 53.5719C32.6568 55.6745 28.9883 56.7943 25.2371 56.7906C22.7367 56.7927 20.2605 56.2952 17.95 55.3265C15.6395 54.3579 13.54 52.9371 11.7717 51.1455C10.0034 49.3539 8.60093 47.2265 7.64446 44.8851C6.68798 42.5437 6.1963 40.0341 6.19751 37.5C6.19719 34.0097 7.13086 30.5848 8.89911 27.5898C10.6674 24.5948 13.204 22.1419 16.2388 20.4924C19.2737 18.8429 22.6931 18.0584 26.133 18.2227C29.5729 18.3869 32.9044 19.4936 35.7728 21.425C35.6187 21.5594 35.4645 21.6812 35.3473 21.8187C33.1248 23.7638 31.3416 26.1711 30.1189 28.877C28.8963 31.5829 28.2629 34.5239 28.2618 37.5C28.2618 43.5156 30.8303 49.2344 35.3165 53.1906ZM48.7629 18.2062C45.0151 18.1989 41.3494 19.3191 38.2303 21.425C38.3813 21.5594 38.5355 21.6812 38.6527 21.8187C43.1605 25.7656 45.7413 31.4875 45.7413 37.5C45.7413 43.5125 43.1667 49.2281 38.6866 53.1906C38.5355 53.3187 38.3752 53.4469 38.221 53.5719C41.3436 55.6752 45.0105 56.7951 48.7598 56.7906C51.2799 56.8233 53.7813 56.3485 56.119 55.3938C58.4566 54.4391 60.5839 53.0234 62.3775 51.2288C64.171 49.4343 65.5952 47.2967 66.5672 44.94C67.5393 42.5833 68.0399 40.0544 68.0402 37.5C68.0404 34.9457 67.5401 32.4167 66.5684 30.0598C65.5967 27.7029 64.1729 25.5651 62.3797 23.7703C60.5864 21.9755 58.4593 20.5594 56.1218 19.6043C53.7844 18.6491 51.283 18.1739 48.7629 18.2062ZM37 22.3437C34.7332 24.1452 32.9009 26.4462 31.6422 29.0723C30.3836 31.6984 29.7316 34.5805 29.7357 37.5C29.7297 40.4212 30.3808 43.3053 31.6396 45.9332C32.8983 48.561 34.7316 50.8635 37 52.6656C39.2678 50.8627 41.1008 48.5602 42.3599 45.9325C43.6191 43.3049 44.2714 40.4212 44.2674 37.5C44.2716 34.5801 43.6193 31.6977 42.3601 29.0715C41.1009 26.4454 39.2678 24.1446 37 22.3437Z" fill="black"/>
</svg>
