<svg width="98" height="99" viewBox="0 0 98 99" fill="none" xmlns="http://www.w3.org/2000/svg">
<path d="M67.5343 37.8922C65.6361 37.1935 63.6296 36.8429 61.6093 36.8568C55.076 36.8568 50.4618 40.1816 50.4292 44.9542C50.3883 48.4605 53.7081 50.4363 56.2193 51.6078C58.7959 52.8123 59.6575 53.5713 59.6493 54.648C59.633 56.2856 57.5913 57.0281 55.6926 57.0281C53.0833 57.0281 51.6583 56.661 49.4655 55.7411L48.6529 55.3575L47.726 60.852C49.3144 61.5202 52.1768 62.0936 55.1332 62.1431C62.0789 62.1431 66.6196 58.839 66.6727 53.7611C66.7298 50.9602 64.9332 48.8441 61.152 47.0951C58.8531 45.9607 57.428 45.2017 57.428 44.0508C57.428 43.032 58.6489 41.943 61.201 41.943C62.8995 41.9015 64.5875 42.2234 66.1541 42.8876L66.7666 43.164L67.6935 37.8551L67.5343 37.8922ZM84.4883 37.3023H79.3841C77.7957 37.3023 76.5993 37.7437 75.9051 39.336L66.0888 61.8007H73.0345L74.4228 58.1171L82.8998 58.1253C83.0999 58.9875 83.7124 61.8007 83.7124 61.8007H89.8374L84.4883 37.3023ZM41.0334 37.0961H47.6525L43.512 61.6068H36.9011L41.0334 37.0878V37.0961ZM24.2305 50.6055L24.9165 54.0086L31.3845 37.3023H38.3956L27.979 61.7677H20.9843L15.2676 41.052C15.175 40.7104 14.9576 40.417 14.6592 40.2311C12.5987 39.1559 10.4156 38.3399 8.15851 37.8015L8.24834 37.2858H18.9018C20.3473 37.3436 21.511 37.8015 21.8989 39.3607L24.2264 50.6178V50.6055H24.2305ZM76.3216 53.1052L78.9594 46.2495C78.9268 46.3237 79.5025 44.8346 79.8373 43.9147L80.2906 46.0308L81.8218 53.1011H76.3175V53.1052H76.3216Z" fill="black"/>
</svg>
