<svg width="106" height="107" viewBox="0 0 106 107" fill="none" xmlns="http://www.w3.org/2000/svg">
<path d="M8.4005 72.8837V60.1875L0 37.44H4.22675L10.4012 54.998L17.5297 33.7686H21.412L12.2662 60.328V72.8871L8.4005 72.8837ZM33.2972 72.8837H30.0543C29.8919 72.2305 29.7811 71.5652 29.7231 70.8942H29.4846C28.3981 72.2886 26.9969 73.2315 24.8239 73.2315C21.3027 73.2315 18.8879 70.5465 18.8879 65.6378C18.8879 60.2878 21.6008 56.914 28.5339 56.914H29.0672V55.4327C29.0672 52.1558 27.9807 50.7648 25.8242 50.7648C23.8533 50.7648 22.1805 51.8081 20.9052 52.9416L20.1632 49.5276C21.3027 48.5881 23.5651 47.5448 26.0627 47.5448C30.4485 47.5448 32.8468 49.4273 32.8468 55.4862V67.2261C32.8468 69.6102 33.0853 71.7034 33.2741 72.8871L33.2972 72.8837ZM29.0871 59.8565H28.6366C23.8566 59.8565 22.843 61.9798 22.843 65.2031C22.843 68.0788 23.7738 69.9546 25.7216 69.9546C27.0499 69.9546 28.3815 69.0685 29.0705 67.9718L29.0871 59.8565ZM41.4592 72.8837H37.63V47.8223H41.4592V50.0158H41.6978C42.3901 49.0762 44.255 47.5415 46.5638 47.5415C49.8068 47.5415 51.516 49.3705 51.516 53.1857V72.8837H47.6338V53.5335C47.6338 51.6509 46.8089 50.9922 45.3249 50.9922C43.7184 50.9922 42.3569 52.2461 41.4592 53.48V72.8837ZM55.3088 61.3378C55.3088 52.0555 58.7439 47.5448 63.6961 47.5448C64.8853 47.5448 66.1109 47.9461 66.8529 48.4844V37.44H70.6821V72.8837H67.8334L67.5253 70.8942H67.2835C66.2136 72.2886 64.8356 73.2315 62.8183 73.2315C57.9522 73.2315 55.3088 69.0685 55.3088 61.3378ZM66.8562 51.8984C66.0778 51.1126 65.2364 50.7113 63.9544 50.7113C60.8672 50.7113 59.3832 55.4327 59.3832 60.5319C59.3832 66.3868 60.4697 69.9513 63.282 69.9513C65.1999 69.9513 66.2136 69.0117 66.8562 68.0219V51.8984ZM82.7761 73.2315C77.6715 73.2315 74.5114 69.122 74.5114 61.4381C74.5114 53.3964 76.7208 47.5415 81.9811 47.5415C86.1051 47.5415 88.7949 50.6578 88.7949 59.161V61.2843H78.4963C78.4963 66.9452 80.0697 69.9078 83.1206 69.9078C85.2803 69.9078 86.867 68.9314 87.8343 68.2359L88.7319 71.1951C87.0382 72.5437 84.9363 73.2627 82.7794 73.2315H82.7761ZM78.5493 58.0977H84.8828C84.8828 53.8311 84.1905 50.7147 81.9811 50.7147C79.6358 50.7147 78.811 53.6405 78.5328 58.0977H78.5493ZM105.467 47.8926L100.859 59.5957L106 72.8871H102.035L98.1825 62.575L94.4593 72.8871H90.6797L95.8372 59.9434L91.1633 47.8926H95.1483L98.3581 56.9641L101.737 47.8926H105.467Z" fill="black"/>
</svg>
