<svg width="58" height="61" viewBox="0 0 58 61" fill="none" xmlns="http://www.w3.org/2000/svg">
<path d="M27.6805 43.2617C27.7965 43.3659 27.9222 43.4701 28.0454 43.5718C25.5959 45.2819 22.7205 46.1927 19.7804 46.1897C17.8207 46.1914 15.8798 45.7867 14.0689 44.9989C12.258 44.2111 10.6124 43.0555 9.22647 41.5983C7.8405 40.1411 6.74125 38.4109 5.99158 36.5065C5.24191 34.6022 4.85653 32.5611 4.85748 30.5C4.85723 27.6613 5.58903 24.8756 6.97496 22.4397C8.36088 20.0037 10.349 18.0087 12.7277 16.6671C15.1064 15.3255 17.7865 14.6875 20.4826 14.8211C23.1787 14.9547 25.7899 15.8548 28.0382 17.4257C27.9173 17.5349 27.7965 17.6341 27.7047 17.7459C25.9627 19.3279 24.565 21.2858 23.6067 23.4866C22.6484 25.6874 22.152 28.0794 22.1512 30.5C22.1512 35.3927 24.1642 40.0439 27.6805 43.2617ZM38.2196 14.8077C35.2821 14.8017 32.409 15.7128 29.9642 17.4257C30.0827 17.5349 30.2035 17.6341 30.2953 17.7459C33.8285 20.956 35.8512 25.6098 35.8512 30.5C35.8512 35.3902 33.8333 40.0389 30.3219 43.2617C30.2035 43.3659 30.0778 43.4701 29.957 43.5718C32.4045 45.2825 35.2785 46.1934 38.2172 46.1897C40.1924 46.2163 42.1529 45.8301 43.9851 45.0536C45.8173 44.2771 47.4847 43.1257 48.8904 41.6661C50.2962 40.2066 51.4124 38.468 52.1743 36.5512C52.9362 34.6344 53.3286 32.5775 53.3287 30.5C53.3289 28.4225 52.9368 26.3656 52.1752 24.4486C51.4136 22.5317 50.2977 20.7929 48.8921 19.3331C47.4866 17.8734 45.8194 16.7216 43.9874 15.9448C42.1553 15.168 40.1948 14.7815 38.2196 14.8077ZM29 18.1729C27.2233 19.6381 25.7872 21.5096 24.8007 23.6455C23.8141 25.7813 23.3031 28.1254 23.3063 30.5C23.3016 32.8759 23.812 35.2216 24.7986 37.359C25.7852 39.4963 27.222 41.369 29 42.8347C30.7774 41.3683 32.2141 39.4956 33.201 37.3584C34.1879 35.2213 34.6992 32.8759 34.6961 30.5C34.6994 28.1252 34.1881 25.7808 33.2011 23.6449C32.2142 21.5089 30.7774 19.6376 29 18.1729Z" fill="#7044CC"/>
</svg>
