<svg width="78" height="79" viewBox="0 0 78 79" fill="none" xmlns="http://www.w3.org/2000/svg">
<path d="M53.7518 30.2372C52.241 29.6796 50.644 29.3998 49.036 29.411C43.836 29.411 40.1635 32.064 40.1375 35.8725C40.105 38.6704 42.7473 40.2471 44.746 41.182C46.7968 42.1431 47.4825 42.7488 47.476 43.6079C47.463 44.9147 45.838 45.5072 44.3268 45.5072C42.25 45.5072 41.1158 45.2143 39.3705 44.4802L38.7238 44.1741L37.986 48.5586C39.2503 49.0918 41.5285 49.5494 43.8815 49.5889C49.4098 49.5889 53.0238 46.9523 53.066 42.9002C53.1115 40.6652 51.6815 38.9765 48.672 37.5809C46.8423 36.6757 45.708 36.07 45.708 35.1516C45.708 34.3386 46.6798 33.4696 48.711 33.4696C50.0629 33.4365 51.4064 33.6934 52.6533 34.2234L53.1408 34.4439L53.8785 30.2075L53.7518 30.2372ZM67.2458 29.7665H63.1833C61.919 29.7665 60.9668 30.1187 60.4143 31.3893L52.6013 49.3157H58.1295L59.2345 46.3762L65.9815 46.3828C66.1408 47.0708 66.6283 49.3157 66.6283 49.3157H71.5033L67.2458 29.7665ZM32.6593 29.6019H37.9275L34.632 49.161H29.3703L32.6593 29.5953V29.6019ZM19.2855 40.3821L19.8315 43.0977L24.9795 29.7665H30.5598L22.269 49.2893H16.7018L12.1518 32.7586C12.0781 32.486 11.905 32.2519 11.6675 32.1035C10.0276 31.2455 8.28995 30.5944 6.49353 30.1648L6.56503 29.7533H15.0443C16.1948 29.7994 17.121 30.1648 17.4298 31.409L19.2823 40.392V40.3821H19.2855ZM60.7458 42.3768L62.8453 36.9061C62.8193 36.9653 63.2775 35.777 63.544 35.043L63.9048 36.7316L65.1235 42.3735H60.7425V42.3768H60.7458Z" fill="#7044CC"/>
</svg>
